<?xml version="1.0" encoding="UTF-8"?>
<!-- Created with Inkscape (http://www.inkscape.org/) -->
<svg width="9.811mm" height="7.9375mm" version="1.0" xmlns="http://www.w3.org/2000/svg" xmlns:cc="http://creativecommons.org/ns#" xmlns:dc="http://purl.org/dc/elements/1.1/" xmlns:rdf="http://www.w3.org/1999/02/22-rdf-syntax-ns#" xmlns:xlink="http://www.w3.org/1999/xlink">
 <defs>
  <linearGradient id="linearGradient9521" x1="55.549" x2="110.15" y1="77.07" y2="131.85" gradientUnits="userSpaceOnUse">
   <stop stop-color="#387eb8" offset="0"/>
   <stop stop-color="#366994" offset="1"/>
  </linearGradient>
  <linearGradient id="linearGradient11307" x1="89.137" x2="147.78" y1="111.92" y2="168.1" gradientUnits="userSpaceOnUse">
   <stop stop-color="#ffe052" offset="0"/>
   <stop stop-color="#ffc331" offset="1"/>
  </linearGradient>
 </defs>
 <metadata>
  <rdf:RDF>
   <cc:Work rdf:about="">
    <dc:format>image/svg+xml</dc:format>
    <dc:type rdf:resource="http://purl.org/dc/dcmitype/StillImage"/>
   </cc:Work>
  </rdf:RDF>
 </metadata>
 <g transform="translate(-532.97 -327.87)">
  <g transform="matrix(.27311 0 0 .27311 404.07 259.48)">
   <path d="m514.87 272.36c-2.2906-0.26071-12.583-1.4446-13.975-1.2569 2.3249-1.9911 9.7287-8.3801 9.7287-8.3801l-38.105-4.2296-0.51513 0.43872 23.381 8.2296-13.174 11.329 32.983 3.6498-1.8e-4 -7e-3 -7e-5 8e-5 11.056 0.92772c5.246 0.58499 25.52 3.1201 25.52 3.1201l-11.778-11.038c-1.1716-0.11192-10.122-1.1246-14.491-1.6085l3.9e-4 0.0113z" fill="#f90"/>
   <path d="m564.91 338.27c2.2906 0.26071 12.583 1.4446 13.975 1.2569-2.3249 1.9911-9.7287 8.3801-9.7287 8.3801l38.105 4.2296 0.51513-0.43872-23.381-8.2296 13.174-11.329-32.983-3.6498 1.8e-4 7e-3 7e-5 -8e-5 -11.056-0.92772c-5.246-0.58499-25.52-3.1201-25.52-3.1201l11.778 11.038c1.1716 0.11192 10.122 1.1246 14.491 1.6085l-3.9e-4 -0.0113z" fill="#f90"/>
   <g transform="translate(439.74 182.92)">
    <path d="m99.75 67.469c-28.032 2e-6 -26.281 12.156-26.281 12.156l0.03125 12.594h26.75v3.7812h-37.375s-17.938-2.0343-17.938 26.25c-2e-6 28.284 15.656 27.281 15.656 27.281h9.3438v-13.125s-0.50365-15.656 15.406-15.656h26.531s14.906 0.24096 14.906-14.406v-24.219c0-2e-6 2.2632-14.656-27.031-14.656zm-14.75 8.4688c2.6614-2e-6 4.8125 2.1511 4.8125 4.8125 2e-6 2.6614-2.1511 4.8125-4.8125 4.8125-2.6614 2e-6 -4.8125-2.1511-4.8125-4.8125-2e-6 -2.6614 2.1511-4.8125 4.8125-4.8125z" color="#000000" fill="url(#linearGradient9521)"/>
    <path d="m100.55 177.31c28.032 0 26.281-12.156 26.281-12.156l-0.0312-12.594h-26.75v-3.7812h37.375s17.938 2.0343 17.938-26.25c1e-5 -28.284-15.656-27.281-15.656-27.281h-9.3438v13.125s0.50366 15.656-15.406 15.656h-26.531s-14.906-0.24096-14.906 14.406v24.219s-2.2632 14.656 27.031 14.656zm14.75-8.4688c-2.6614 0-4.8125-2.1511-4.8125-4.8125s2.1511-4.8125 4.8125-4.8125 4.8125 2.1511 4.8125 4.8125c1e-5 2.6614-2.1511 4.8125-4.8125 4.8125z" color="#000000" fill="url(#linearGradient11307)"/>
   </g>
   <path d="m550.31 319.23v-4.2557h-3.8813c0-2.1773 1.08-4.2887 2.2276-4.9485 0.67501-0.56081 2.1938-0.8247 3.5101-0.16493 1.7213 0.95669 1.8226 3.7278 0.94502 4.9814 8.2015-1.4845 7.3915-9.2371 4.5901-12.041-2.2613-2.2763-4.7251-2.6062-6.6152-1.9134-4.3201 1.5176-7.2227 6.565-7.3577 14.087h-2.2613c0-6.8289 1.215-9.0062 4.3876-17.617 1.6201-4.0578 0.64128-9.0722-2.1938-13.691-1.0463-1.6495-2.3288-3.134-3.7801-4.7505-1.4513 1.6165-2.7338 3.101-3.7801 4.7505-2.8351 4.6185-3.8138 9.633-2.1938 13.691 3.1726 8.6103 4.3876 10.788 4.3876 17.617h-2.2613c-0.13499-7.5217-3.0376-12.569-7.3577-14.087-1.8901-0.69276-4.3539-0.36289-6.6152 1.9134-2.8013 2.8041-3.6113 10.557 4.5902 12.041-0.87752-1.2536-0.77628-4.0248 0.94503-4.9814 1.3163-0.65977 2.835-0.39588 3.5101 0.16493 1.1476 0.65981 2.2276 2.7712 2.2276 4.9485h-3.8814v4.2557h8.0665c-0.10133 2.2103-1.3163 3.9258-3.5776 4.8825 0.27001 0.92372 1.6538 2.8041 3.5439 2.6722 0.37124 1.9794 0.70879 3.101 2.3963 4.9155 1.6876-1.8144 2.0251-2.9361 2.3964-4.9155 1.8901 0.13196 3.2738-1.7485 3.5438-2.6722-2.2613-0.95668-3.4763-2.6721-3.5776-4.8825z" fill="#f90" stroke-width=".033368"/>
  </g>
 </g>
</svg>
